<?xml version="1.0" encoding="utf-8"?>
<!-- Generator: Adobe Illustrator 15.0.2, SVG Export Plug-In . SVG Version: 6.00 Build 0)  -->
<!DOCTYPE svg PUBLIC "-//W3C//DTD SVG 1.1//EN" "http://www.w3.org/Graphics/SVG/1.1/DTD/svg11.dtd">
<svg version="1.1" id="Ebene_1" xmlns="http://www.w3.org/2000/svg" xmlns:xlink="http://www.w3.org/1999/xlink" x="0px" y="0px"
	 width="300px" height="300px" viewBox="0 0 300 300" enable-background="new 0 0 300 300" xml:space="preserve">
<rect fill="#FFFFFF" width="300" height="300"/>
<path fill="none" stroke="#000100" stroke-width="6" stroke-miterlimit="10" d="M46.154,59.961
	c0,70.215,46.456,133.308,98.669,133.308"/>
<path fill="none" stroke="#000100" stroke-width="6" stroke-miterlimit="10" d="M195.838,93.216
	c0,71.371-26.415,83.262-51.607,100.053"/>
<path fill="none" stroke="#000100" stroke-width="6" stroke-miterlimit="10" d="M259.866,70.642
	c0,70.793-33.583,123.344-115.472,122.287"/>
<path fill="none" stroke="#000100" stroke-width="6" stroke-miterlimit="10" d="M143.35,193.986
	c-17.838,41.469,22.055,50.917,20.996,67.706"/>
<path fill="none" stroke="#000100" stroke-width="6" stroke-miterlimit="10" d="M72.116,147.115c0-21.466,60.74-8.767,54.443-43.407
	"/>
<path fill="#0087BB" stroke="#000100" stroke-width="6" stroke-miterlimit="10" d="M47.301,47.024
	c11.593,0,20.998,9.404,20.998,20.999c0,11.593-9.404,20.997-20.998,20.997c-11.602,0-20.999-9.404-20.999-20.997
	C26.303,56.429,35.7,47.024,47.301,47.024z"/>
<path fill="#0087BB" stroke="#000100" stroke-width="6" stroke-miterlimit="10" d="M124.984,62.241
	c11.599,0,20.999,9.404,20.999,20.999c0,11.593-9.399,20.997-20.999,20.997c-11.6,0-21-9.404-21-20.997
	C103.984,71.645,113.384,62.241,124.984,62.241z"/>
<path fill="#0087BB" stroke="#000100" stroke-width="6" stroke-miterlimit="10" d="M194.265,54.368
	c11.599,0,20.998,9.404,20.998,20.999c0,11.593-9.399,20.998-20.998,20.998c-11.602,0-21-9.404-21-20.998
	C173.265,63.772,182.663,54.368,194.265,54.368z"/>
<path fill="#0087BB" stroke="#000100" stroke-width="6" stroke-miterlimit="10" d="M258.808,30.762c11.6,0,21,9.404,21,20.999
	c0,11.594-9.399,20.997-21,20.997c-11.599,0-20.997-9.403-20.997-20.997C237.812,40.167,247.209,30.762,258.808,30.762z"/>
<path fill="#0087BB" stroke="#000100" stroke-width="6" stroke-miterlimit="10" d="M161.727,234.926
	c11.601,0,20.998,9.398,20.998,20.999c0,11.599-9.397,20.999-20.998,20.999c-11.595,0-20.999-9.399-20.999-20.999
	C140.729,244.324,150.132,234.926,161.727,234.926z"/>
</svg>
