{
	"asset":{
		"generator":"Khronos glTF Blender I/O v4.1.63",
		"version":"2.0"
	},
	"extensionsUsed":[
		"KHR_materials_specular"
	],
	"scene":0,
	"scenes":[
		{
			"name":"Scene",
			"nodes":[
				2
			]
		}
	],
	"nodes":[
		{
			"mesh":0,
			"name":"Ring.001"
		},
		{
			"mesh":1,
			"name":"Ring.002"
		},
		{
			"children":[
				0,
				1
			],
			"name":"MarriageRelationSymbol"
		}
	],
	"materials":[
		{
			"doubleSided":true,
			"extensions":{
				"KHR_materials_specular":{
					"specularColorFactor":[
						1.3779528141021729,
						0.7241667678819539,
						0.34494896622223337
					]
				}
			},
			"name":"Gold",
			"pbrMetallicRoughness":{
				"baseColorFactor":[
					0.8007893562316895,
					0.7156988382339478,
					0.30852195620536804,
					1
				],
				"metallicFactor":0.8968503475189209,
				"roughnessFactor":0.06692913174629211
			}
		}
	],
	"meshes":[
		{
			"name":"Torus.001",
			"primitives":[
				{
					"attributes":{
						"POSITION":0,
						"NORMAL":1,
						"TEXCOORD_0":2
					},
					"indices":3,
					"material":0
				}
			]
		},
		{
			"name":"Torus",
			"primitives":[
				{
					"attributes":{
						"POSITION":4,
						"NORMAL":5,
						"TEXCOORD_0":6
					},
					"indices":3,
					"material":0
				}
			]
		}
	],
	"accessors":[
		{
			"bufferView":0,
			"componentType":5126,
			"count":1625,
			"max":[
				0.516349196434021,
				0.24651983380317688,
				0.10489743947982788
			],
			"min":[
				-0.516349196434021,
				-0.24651983380317688,
				-0.9648974537849426
			],
			"type":"VEC3"
		},
		{
			"bufferView":1,
			"componentType":5126,
			"count":1625,
			"type":"VEC3"
		},
		{
			"bufferView":2,
			"componentType":5126,
			"count":1625,
			"type":"VEC2"
		},
		{
			"bufferView":3,
			"componentType":5123,
			"count":6912,
			"type":"SCALAR"
		},
		{
			"bufferView":4,
			"componentType":5126,
			"count":1625,
			"max":[
				0.516349196434021,
				0.24651983380317688,
				0.9648974537849426
			],
			"min":[
				-0.516349196434021,
				-0.24651983380317688,
				-0.10489743947982788
			],
			"type":"VEC3"
		},
		{
			"bufferView":5,
			"componentType":5126,
			"count":1625,
			"type":"VEC3"
		},
		{
			"bufferView":6,
			"componentType":5126,
			"count":1625,
			"type":"VEC2"
		}
	],
	"bufferViews":[
		{
			"buffer":0,
			"byteLength":19500,
			"byteOffset":0,
			"target":34962
		},
		{
			"buffer":0,
			"byteLength":19500,
			"byteOffset":19500,
			"target":34962
		},
		{
			"buffer":0,
			"byteLength":13000,
			"byteOffset":39000,
			"target":34962
		},
		{
			"buffer":0,
			"byteLength":13824,
			"byteOffset":52000,
			"target":34963
		},
		{
			"buffer":0,
			"byteLength":19500,
			"byteOffset":65824,
			"target":34962
		},
		{
			"buffer":0,
			"byteLength":19500,
			"byteOffset":85324,
			"target":34962
		},
		{
			"buffer":0,
			"byteLength":13000,
			"byteOffset":104824,
			"target":34962
		}
	],
	"buffers":[
		{
			"byteLength":117824,
			"uri":"marriage.bin"
		}
	]
}
